<svg xmlns="http://www.w3.org/2000/svg" viewBox="0 0 100 100" fill="none" height="100" width="100"><mask id="a"><rect width="100" height="100" rx="50" ry="50" fill="#fff"/></mask><g mask="url(#a)"><path fill="#f88c49" d="M0 0h100v100H0z"/><path d="M92.882 62.755c3.33-23.697-13.923-45.713-38.532-49.171S7.088 26.532 3.758 50.229l-12.062 85.827 89.124 12.526z" fill="#69d2e7"/><path d="M45.952 36.189c.306 2.178-.77 4.147-2.414 4.378s-3.222-1.365-3.528-3.543.77-4.148 2.414-4.379 3.222 1.365 3.528 3.544m21.786-3.062c.306 2.179-.77 4.148-2.414 4.379s-3.222-1.365-3.528-3.544.77-4.148 2.414-4.379 3.222 1.365 3.528 3.544M56.936 56.861c-8.13 1.143-12.715-4.393-11.633-5.312 1.081-.93 2.346 3.184 11.144 1.836 8.797-1.357 8.898-5.522 10.206-4.837s-1.587 7.17-9.717 8.313" fill="#fff"/></g></svg>
